<svg width="234" height="43" viewBox="0 0 234 43" fill="none" xmlns="http://www.w3.org/2000/svg">
<g clip-path="url(#clip0_601_38)">
<path d="M36.0902 21.5001L35.6002 22.3301L27.3302 36.4901L26.9202 37.2001L26.7102 37.5601L26.4402 37.9701C24.5902 40.7601 21.4302 42.4101 18.0802 42.3501C16.7602 42.3501 15.4602 42.0801 14.2502 41.5601C13.0302 41.0401 11.9302 40.2701 11.0202 39.3101C10.9002 39.1901 10.8002 39.0701 10.6902 38.9401L10.5302 38.7501L10.4002 38.5801L9.87023 37.9101C9.53023 37.4601 9.19023 37.0101 8.86023 36.5501C8.21023 35.6401 7.58023 34.7001 6.98023 33.7601C4.57023 30.0001 2.50023 26.1301 0.400234 22.3001L-0.00976562 21.5601L0.360234 20.7601C1.36023 18.6201 6.38023 10.3401 7.61023 8.29008C10.9302 2.74008 13.4102 1.34008 15.1102 0.850077C16.3302 0.500077 17.7702 0.340077 18.9002 0.730077C16.8302 1.11008 14.8002 2.80008 13.4302 4.47008C12.0702 6.27008 10.8402 8.16008 9.76023 10.1401C8.63023 12.1201 7.58023 14.0101 6.52023 16.0601L3.71023 21.4801C5.67023 25.0501 7.60023 28.6201 9.75023 31.9901C10.3302 32.8901 10.9202 33.7701 11.5402 34.6401C11.8502 35.0501 12.1602 35.4901 12.4802 35.9101L12.9702 36.5301L13.0902 36.6901L13.2002 36.8101C13.2702 36.9001 13.3402 36.9801 13.4202 37.0501C14.6302 38.3301 16.3202 39.0501 18.0802 39.0501C19.8602 39.0701 21.5702 38.3801 22.8402 37.1501C23.1502 36.8401 23.4302 36.5101 23.6702 36.1501L23.8502 35.8801L24.0602 35.5201L26.1302 31.9901L32.2602 21.5101L25.4302 9.75008C25.8802 9.17008 27.0802 7.79008 27.6902 7.06008L35.6202 20.6701L36.1002 21.5101L36.0902 21.5001Z" fill="black"/>
<path d="M42.3202 21.48L41.9102 22.31C40.8502 24.38 36.3102 32.53 35.0802 34.57C33.8402 36.6 32.3402 38.7 30.5002 40.27C28.8502 41.68 26.1402 42.13 24.9302 41.75C26.1002 41.46 28.1102 39.91 28.9902 38.76C30.3002 36.96 31.4602 35.06 32.4902 33.09C33.5602 31.07 38.0202 23.25 39.0102 21.48C37.0502 17.88 29.8602 5.96997 29.7702 5.88997C30.3802 5.34997 31.2202 5.16997 32.0002 5.40997C32.6802 5.60997 33.2702 6.04997 33.6502 6.64997C34.1402 7.39997 39.7702 16.88 41.8802 20.71L42.3202 21.5V21.48Z" fill="black"/>
<path d="M12.5898 21.4599L13.0798 20.6299L21.3498 6.42988L21.7598 5.71988L21.9698 5.35988L22.2398 4.94988C22.5998 4.39988 23.0198 3.88988 23.4798 3.41988C26.3398 0.529884 30.7098 -0.310116 34.4398 1.32988C35.6598 1.84988 36.7598 2.61988 37.6698 3.58988C37.7898 3.70988 37.8898 3.83988 37.9998 3.95988L38.1598 4.14988L38.2898 4.31988L38.8198 4.98988C39.1598 5.43988 39.4998 5.89988 39.8298 6.35988C40.4798 7.27988 41.1098 8.21988 41.7098 9.15988C44.1098 12.9399 46.1698 16.8299 48.2798 20.6699L48.6898 21.4099L48.3198 22.1999C47.3198 24.3499 42.2998 32.6599 41.0798 34.7099C37.7698 40.2699 35.2898 41.6399 33.5798 42.1499C32.3398 42.5099 30.9298 42.6699 29.7898 42.2799C31.8598 41.8999 33.8898 40.2599 35.2598 38.5599C36.6198 36.7599 37.8498 34.8599 38.9298 32.8699C40.0598 30.8899 41.1098 28.9899 42.1698 26.9299L44.9698 21.4999C43.0098 17.9199 41.0798 14.3299 38.9298 10.9599C38.3398 10.0599 37.7398 9.16988 37.1398 8.29988C36.8298 7.86988 36.5198 7.43988 36.1998 7.01988L35.7098 6.39988L35.5898 6.23988L35.4798 6.11988C35.4098 6.02988 35.3398 5.94988 35.2598 5.87988C34.0498 4.59988 32.3598 3.86988 30.5998 3.87988C28.8198 3.85988 27.1098 4.54988 25.8398 5.78988C25.5298 6.09988 25.2498 6.43988 25.0098 6.79988L24.8298 7.06988L24.2098 8.13988L22.5598 10.9799L16.4198 21.4899L23.5698 33.7999C23.1198 34.3799 21.9198 35.7599 21.3098 36.4999L13.0798 22.3299L12.5998 21.4899L12.5898 21.4599Z" fill="black"/>
<path d="M6.34984 21.5499L6.75984 20.7399C7.81984 18.6699 12.3598 10.5199 13.5898 8.47992C14.8298 6.44992 16.3298 4.34992 18.1798 2.77992C19.8298 1.36992 22.6698 -0.0600768 25.3898 0.739923C22.9498 1.14992 20.4298 3.55992 19.5598 4.70992C18.2998 6.36992 17.1698 8.12992 16.1798 9.96992C15.1098 11.9899 10.6498 19.8099 9.65984 21.5899C11.6198 25.1599 18.8098 37.0799 18.8898 37.1599C18.2798 37.6999 17.4398 37.8799 16.6598 37.6399C15.9798 37.4399 15.3898 36.9999 15.0098 36.3999C14.5198 35.6499 8.88984 26.1799 6.77984 22.3399L6.33984 21.5499H6.34984Z" fill="black"/>
<path d="M67.7202 29.32V13.68H69.6302V27.76H77.1302V29.32H67.7202ZM87.6702 29.32V13.68H97.7902V15.2H89.5802V20.49H97.3302V21.96H89.5802V27.78H97.8602V29.32H87.6702ZM112.99 29.32L107.47 13.68H109.47L114.28 27.76H114.35L119.11 13.68H121.07L115.57 29.32H112.99ZM131.52 29.32V13.68H141.64V15.2H133.43V20.49H141.18V21.96H133.43V27.78H141.71V29.32H131.52ZM152.72 29.32V13.68H159.39C163.48 13.68 164.36 14.62 164.36 18V18.53C164.36 21.11 163.67 21.98 162.18 22.28V22.33C163.93 22.65 164.36 23.46 164.36 26.52V29.33H162.45V27.21C162.45 23.62 162.13 23.19 159.12 23.19H154.61V29.33H152.72V29.32ZM154.61 21.68H159.74C161.83 21.68 162.45 20.99 162.45 18.8V18.22C162.45 15.67 161.92 15.18 159 15.18H154.61V21.67V21.68ZM174.71 29.32L180.39 13.68H183.13L188.7 29.32H186.7L185.48 25.78H177.94L176.7 29.32H174.72H174.71ZM178.36 24.31H184.98L181.81 15.09H181.67L178.36 24.31ZM205.11 29.46C200.05 29.46 198.88 28.15 198.88 22.15V20.82C198.88 14.68 200.24 13.55 205.14 13.55H205.55C210.13 13.55 211.35 14.61 211.35 17.92V18.29H209.51V17.97C209.51 15.65 208.82 15.09 205.53 15.09H205.18C201.5 15.09 200.79 15.76 200.79 20.84V22.15C200.79 27.12 201.55 27.88 205.18 27.88H205.53C208.89 27.88 209.65 27.35 209.65 24.41V23.01H204.77V21.58H211.49V24.2C211.49 28.34 210.27 29.47 205.53 29.47H205.12L205.11 29.46ZM222.92 29.32V13.68H233.04V15.2H224.83V20.49H232.58V21.96H224.83V27.78H233.11V29.32H222.92Z" fill="black"/>
</g>
<defs>
<clipPath id="clip0_601_38">
<rect width="233.11" height="42" fill="white" transform="translate(0 0.5)"/>
</clipPath>
</defs>
</svg>
