<svg xmlns="http://www.w3.org/2000/svg" viewBox="0 0 151.9 27">
<style>.st0{fill:#333944;}</style>
<g>
		<g>
			<path class="st0" d="M20.9,0.1h-9.3c-0.1,0-0.1,0-0.1,0.1c0,0,0,0,0,0.1l4.7,11.4c0,0.1,0,0.1,0,0.1c0,0,0,0,0-0.1L21,0.2h0
				C21,0.2,21,0.2,20.9,0.1C21,0.1,20.9,0.1,20.9,0.1"/>
			<path class="st0" d="M16.3,14.8C16.2,14.7,16.2,14.7,16.3,14.8C16.2,14.7,16.2,14.7,16.3,14.8l-4.4,10.6c0,0,0,0,0,0.1
				c0,0,0,0.1,0.1,0.1h8.6c0.1,0,0.1,0,0.1-0.1c0,0,0,0,0-0.1L16.3,14.8z"/>
			<path class="st0" d="M22.4,2.4v22.8c0,0.1,0.1,0.2,0.2,0.2h9.2c0.1,0,0.1,0,0.1-0.1c0,0,0,0,0-0.1L22.4,2.4z"/>
			<path class="st0" d="M0.6,25.4C0.6,25.4,0.7,25.5,0.6,25.4l9.3,0.1c0.1,0,0.2-0.1,0.2-0.2V2.4L0.6,25.4
				C0.6,25.4,0.6,25.4,0.6,25.4"/>
			<path class="st0" d="M32.3,0.1h-9.5c-0.1,0-0.1,0-0.1,0.1c0,0,0,0,0,0.1l9.8,23.7V0.3C32.4,0.2,32.3,0.1,32.3,0.1"/>
			<path class="st0" d="M9.7,0.1H0.2C0.1,0.1,0,0.2,0,0.3v23.7L9.8,0.2C9.8,0.2,9.8,0.2,9.7,0.1C9.8,0.1,9.8,0.1,9.7,0.1"/>
			<path class="st0" d="M16.9,13.2c0,0.1,0,0.2,0,0.2l4.3,10.5V2.5L16.9,13C16.9,13.1,16.9,13.1,16.9,13.2"/>
			<path class="st0" d="M11.2,2.5v21.5l4.3-10.5c0-0.1,0-0.1,0-0.2c0-0.1,0-0.2,0-0.2L11.2,2.5z"/>
			<path class="st0" d="M146.4,4.8V1.5h1.7c1.2,0,1.8,0.5,1.8,1.6v0c0,1-0.7,1.6-1.9,1.6H146.4z M144.9,9.4h1.5V6.1h1.5
				c0,0,0.1,0,0.1,0l2,3.3h1.8l-2.2-3.6c1.1-0.4,1.9-1.3,1.9-2.7V3.1c0-0.8-0.3-1.6-0.8-2c-0.6-0.6-1.4-0.9-2.5-0.9h-3.4V9.4z
				 M137.3,9.4h5.9V8h-4.4V5.4h3.8V4h-3.8V1.5h4.3V0.1h-5.9V9.4z M132,9.4h1.5V1.6h2.4V0.1h-6.4v1.4h2.4V9.4z M121.1,9.4h1.5V3
				l4.2,6.4h1.3V0.1h-1.5v6.2l-4.1-6.2h-1.4V9.4z M113.6,9.4h5.9V8h-4.4V5.4h3.8V4h-3.8V1.5h4.3V0.1h-5.9V9.4z M109.2,9.6
				c1.3,0,2.2-0.5,3-1.3l-0.9-1.1c-0.6,0.6-1.2,1-2.1,1c-1.5,0-2.6-1.3-2.6-3.3V4.7c0-2,1.1-3.3,2.6-3.3c0.8,0,1.4,0.4,2,0.9
				l0.9-1.2c-0.8-0.7-1.6-1.2-2.9-1.2c-2.4,0-4.2,1.9-4.2,4.7v0.1C105.1,7.7,106.8,9.6,109.2,9.6 M97.4,9.5c1.7,0,3-1,3-2.7v0
				c0-1.4-0.8-2.1-2.5-2.7c-1.6-0.6-1.9-1-1.9-1.6v0c0-0.6,0.5-1.1,1.4-1.1c0.7,0,1.4,0.4,2.1,0.9l0.9-1.2C99.4,0.4,98.4,0,97.4,0
				c-1.7,0-2.9,1.1-2.9,2.6v0c0,1.5,0.9,2.1,2.7,2.8C98.6,6,98.9,6.4,98.9,7v0c0,0.7-0.6,1.2-1.5,1.2c-1,0-1.8-0.5-2.4-1.1l-0.9,1.2
				C95.1,9.1,96.2,9.5,97.4,9.5 M89.3,9.6c2.1,0,3.5-1.2,3.5-3.7V0.1h-1.5v5.8c0,1.5-0.7,2.2-1.9,2.2c-1.2,0-1.9-0.8-1.9-2.3V0.1
				h-1.5v5.7C85.9,8.3,87.3,9.6,89.3,9.6 M80.6,9.4h1.5V1.6h2.4V0.1h-6.4v1.4h2.4V9.4z M72.8,5.9l1.3-3.7l1.3,3.7H72.8z M70,9.4h1.6
				l0.8-2.2H76l0.8,2.2h1.6l-3.4-9.3h-1.5L70,9.4z M66.1,9.6c1.3,0,2.2-0.5,3-1.3l-0.9-1.1c-0.6,0.6-1.2,1-2.1,1
				c-1.5,0-2.6-1.3-2.6-3.3V4.7c0-2,1.1-3.3,2.6-3.3c0.8,0,1.4,0.4,2,0.9l0.9-1.2C68.4,0.5,67.5,0,66.2,0c-2.4,0-4.2,1.9-4.2,4.7
				v0.1C62.1,7.7,63.8,9.6,66.1,9.6 M55.7,4.8V1.5h1.7c1.2,0,1.8,0.5,1.8,1.6v0c0,1-0.7,1.6-1.9,1.6H55.7z M54.2,9.4h1.5V6.1h1.5
				c0,0,0.1,0,0.1,0l2,3.3h1.8l-2.2-3.6c1.1-0.4,1.9-1.3,1.9-2.7V3.1c0-0.8-0.3-1.6-0.8-2c-0.6-0.6-1.4-0.9-2.5-0.9h-3.4V9.4z
				 M46.6,9.4h5.9V8h-4.4V5.4H52V4h-3.8V1.5h4.3V0.1h-5.9V9.4z M36.5,9.4H38V2.9l2.5,4.3h0L43,2.9v6.6h1.5V0.1h-1.6l-2.4,4.3
				l-2.4-4.3h-1.6V9.4z"/>
			<g>
				<path class="st0" d="M149.4,24.3l-1.7-4.6h-0.8l2.1,5.6c-0.3,0.7-0.5,1-1,1c-0.3,0-0.5-0.1-0.7-0.2l-0.2,0.6
					c0.3,0.2,0.7,0.3,1,0.3c0.7,0,1.2-0.4,1.6-1.5l2-5.7h-0.8L149.4,24.3z M145.2,25.4c0.3,0,0.6-0.1,0.8-0.2v-0.7
					c-0.2,0.1-0.4,0.2-0.7,0.2c-0.5,0-0.8-0.2-0.8-0.8v-3.5h1.5v-0.7h-1.5v-1.6h-0.8v1.6h-0.7v0.7h0.7V24
					C143.8,25,144.4,25.4,145.2,25.4 M141.1,25.3h0.8v-5.6h-0.8V25.3z M141.1,18.6h0.9v-0.9h-0.9V18.6z M138,25.4
					c1,0,1.8-0.6,1.8-1.6v0c0-0.8-0.6-1.2-1.6-1.6c-0.8-0.3-1.2-0.6-1.2-1v0c0-0.4,0.4-0.8,1-0.8c0.5,0,1,0.2,1.4,0.5l0.4-0.6
					c-0.5-0.4-1.1-0.6-1.8-0.6c-1,0-1.7,0.6-1.7,1.5v0c0,0.9,0.7,1.2,1.6,1.6c0.7,0.3,1.2,0.6,1.2,1.1v0c0,0.5-0.4,0.9-1,0.9
					c-0.6,0-1.1-0.2-1.6-0.7l-0.4,0.6C136.6,25.1,137.4,25.4,138,25.4 M132.7,25.3h0.8v-2.7c0-1.4,0.8-2.2,1.9-2.2h0v-0.8
					c-0.9,0-1.6,0.5-1.9,1.3v-1.2h-0.8V25.3z M127.6,22.2c0.1-1.2,0.7-1.9,1.5-1.9c0.9,0,1.4,0.9,1.5,1.9H127.6z M129.3,25.4
					c0.8,0,1.4-0.3,1.9-0.8l-0.4-0.5c-0.4,0.4-0.8,0.6-1.4,0.6c-0.9,0-1.6-0.7-1.7-1.9h3.7c0-0.1,0-0.2,0-0.3c0-1.7-0.8-2.9-2.2-2.9
					c-1.3,0-2.3,1.2-2.3,2.9v0.1C126.8,24.3,127.9,25.4,129.3,25.4 M123.4,25.3h0.7l2-5.6h-0.8l-1.6,4.6l-1.6-4.6h-0.8L123.4,25.3z
					 M119.4,25.3h0.8v-5.6h-0.8V25.3z M119.4,18.6h0.9v-0.9h-0.9V18.6z M113.6,25.3h0.8v-3.4c0-1,0.6-1.6,1.4-1.6s1.3,0.6,1.3,1.6
					v3.4h0.8v-3.6c0-1.3-0.7-2-1.8-2c-0.8,0-1.3,0.5-1.6,1v-0.9h-0.8V25.3z M109.2,25.4c1.6,0,2.7-1,2.7-3v-4.7h-0.8v4.7
					c0,1.4-0.7,2.2-1.9,2.2c-1.2,0-1.9-0.8-1.9-2.2v-4.7h-0.8v4.7C106.5,24.4,107.6,25.4,109.2,25.4 M98,25.3h0.8v-3.4
					c0-1,0.6-1.6,1.4-1.6s1.3,0.6,1.3,1.6v3.4h0.8v-3.6c0-1.3-0.7-2-1.8-2c-0.8,0-1.3,0.5-1.6,1v-0.9H98V25.3z M94.2,24.7
					c-1,0-1.7-0.9-1.7-2.2v-0.1c0-1.2,0.7-2.2,1.7-2.2c1,0,1.7,0.9,1.7,2.2v0.1C95.9,23.8,95.2,24.7,94.2,24.7 M94.2,25.4
					c1.4,0,2.5-1.3,2.5-2.9v-0.1c0-1.6-1-2.9-2.5-2.9s-2.5,1.2-2.5,2.9v0.1C91.7,24.2,92.7,25.4,94.2,25.4 M88.9,25.4
					c1,0,1.8-0.6,1.8-1.6v0c0-0.8-0.6-1.2-1.6-1.6c-0.8-0.3-1.2-0.6-1.2-1v0c0-0.4,0.4-0.8,1-0.8c0.5,0,1,0.2,1.4,0.5l0.4-0.6
					c-0.5-0.4-1.1-0.6-1.8-0.6c-1,0-1.7,0.6-1.7,1.5v0c0,0.9,0.7,1.2,1.6,1.6c0.7,0.3,1.2,0.6,1.2,1.1v0c0,0.5-0.4,0.9-1,0.9
					c-0.6,0-1.1-0.2-1.6-0.7l-0.4,0.6C87.5,25.1,88.2,25.4,88.9,25.4 M83.5,24.8c-0.7,0-1.2-0.4-1.2-1.1v0c0-0.7,0.5-1.2,1.4-1.2
					c0.5,0,1,0.1,1.3,0.2v0.7C85.1,24.2,84.4,24.8,83.5,24.8 M83.4,25.4c0.8,0,1.4-0.4,1.7-0.9v0.8h0.8v-3.6c0-0.7-0.2-1.2-0.5-1.5
					c-0.4-0.4-0.9-0.6-1.6-0.6c-0.7,0-1.2,0.2-1.8,0.4l0.2,0.6c0.4-0.2,0.9-0.4,1.4-0.4c0.9,0,1.4,0.5,1.4,1.4v0.3
					c-0.4-0.1-0.8-0.2-1.4-0.2c-1.2,0-2.1,0.7-2.1,1.8v0C81.6,24.8,82.4,25.4,83.4,25.4 M73.9,25.3h0.8v-6l2.3,4h0l2.3-4v6h0.8v-7.5
					h-0.8l-2.3,4l-2.3-4h-0.8V25.3z M66,22.2c0.1-1.2,0.7-1.9,1.5-1.9c0.9,0,1.4,0.9,1.5,1.9H66z M67.7,25.4c0.8,0,1.4-0.3,1.9-0.8
					l-0.4-0.5c-0.4,0.4-0.8,0.6-1.4,0.6c-0.9,0-1.6-0.7-1.7-1.9h3.7c0-0.1,0-0.2,0-0.3c0-1.7-0.8-2.9-2.2-2.9
					c-1.3,0-2.3,1.2-2.3,2.9v0.1C65.3,24.3,66.4,25.4,67.7,25.4 M61.5,24.2c-0.9,0-1.6-0.7-1.6-1.9v0c0-1.2,0.7-1.9,1.6-1.9
					c0.9,0,1.7,0.7,1.7,1.9v0C63.2,23.5,62.3,24.2,61.5,24.2 M61.4,26.9c0.8,0,1.4-0.2,1.9-0.6c0.4-0.4,0.6-1,0.6-1.7v-4.8h-0.8v1
					c-0.4-0.6-0.9-1.1-1.8-1.1c-1.1,0-2.2,1-2.2,2.6v0c0,1.7,1.1,2.6,2.2,2.6c0.9,0,1.5-0.5,1.8-1.1v0.8c0,1.1-0.7,1.7-1.7,1.7
					c-0.6,0-1.3-0.2-1.8-0.5l-0.3,0.6C60,26.7,60.7,26.9,61.4,26.9 M55.7,25.3h0.8v-2.7c0-1.4,0.8-2.2,1.9-2.2h0v-0.8
					c-0.9,0-1.6,0.5-1.9,1.3v-1.2h-0.8V25.3z M51.9,24.7c-1,0-1.7-0.9-1.7-2.2v-0.1c0-1.2,0.7-2.2,1.7-2.2c1,0,1.7,0.9,1.7,2.2v0.1
					C53.5,23.8,52.8,24.7,51.9,24.7 M51.8,25.4c1.4,0,2.5-1.3,2.5-2.9v-0.1c0-1.6-1-2.9-2.5-2.9c-1.4,0-2.5,1.2-2.5,2.9v0.1
					C49.4,24.2,50.4,25.4,51.8,25.4 M44.6,22.2c0.1-1.2,0.7-1.9,1.5-1.9c0.9,0,1.4,0.9,1.5,1.9H44.6z M46.3,25.4
					c0.8,0,1.4-0.3,1.9-0.8l-0.4-0.5c-0.4,0.4-0.8,0.6-1.4,0.6c-0.9,0-1.6-0.7-1.7-1.9h3.7c0-0.1,0-0.2,0-0.3c0-1.7-0.8-2.9-2.2-2.9
					c-1.3,0-2.3,1.2-2.3,2.9v0.1C43.8,24.3,44.9,25.4,46.3,25.4 M40,25.4c1,0,1.8-0.4,2.4-0.9v-3.2h-2.6V22h1.9v2.1
					c-0.4,0.3-1,0.5-1.6,0.5c-1.5,0-2.6-1.2-2.6-3.1v-0.1c0-1.8,1.1-3.1,2.5-3.1c0.8,0,1.3,0.3,1.8,0.7l0.5-0.6
					C41.6,18,41,17.7,40,17.7c-2,0-3.3,1.6-3.3,3.8v0.1C36.6,23.8,38,25.4,40,25.4"/>
				<path class="st0" d="M148.2,27c-0.4,0-0.7-0.1-1-0.3l-0.1,0l0.3-0.8l0.1,0c0.2,0.1,0.5,0.2,0.7,0.2c0.3,0,0.6-0.1,0.9-0.9
					l-2.2-5.6h1l0,0l1.6,4.4l1.4-4.4h1l0,0.1l-2,5.7C149.5,26.5,149,27,148.2,27z M147.2,26.6c0.3,0.1,0.6,0.2,0.9,0.2
					c0.8,0,1.2-0.4,1.6-1.5l1.9-5.6H151l-1.5,4.7l-1.7-4.7H147l2.1,5.5l0,0c-0.3,0.7-0.6,1-1,1c-0.2,0-0.5-0.1-0.7-0.2L147.2,26.6z
					 M61.4,27c-0.8,0-1.5-0.2-2.2-0.6l-0.1,0l0.4-0.7l0.1,0c0.5,0.3,1.2,0.5,1.8,0.5c1.1,0,1.6-0.6,1.6-1.6V24c-0.5,0.7-1.1,1-1.8,1
					C60.2,25,59,24,59,22.3v0c0-1.8,1.1-2.7,2.3-2.7c0.7,0,1.3,0.3,1.8,0.9v-0.8H64v4.9c0,0.8-0.2,1.4-0.6,1.8
					C62.9,26.8,62.3,27,61.4,27z M59.4,26.3c0.6,0.4,1.3,0.6,2,0.6c0.8,0,1.4-0.2,1.8-0.6c0.4-0.4,0.6-1,0.6-1.7v-4.8h-0.6v1.2
					l-0.1-0.2c-0.5-0.7-1-1.1-1.8-1.1c-1.1,0-2.1,0.9-2.1,2.6v0c0,1.7,1.1,2.5,2.1,2.5c0.7,0,1.3-0.4,1.8-1.1l0.1-0.2v1.1
					c0,1.1-0.6,1.7-1.8,1.7c-0.6,0-1.2-0.2-1.8-0.5L59.4,26.3z M129.3,25.5c-1.5,0-2.5-1.2-2.5-2.9v-0.1c0-1.7,1-3,2.4-3
					c1.4,0,2.3,1.2,2.3,2.9c0,0.1,0,0.2,0,0.3l0,0.1h-3.7c0.1,1.1,0.8,1.8,1.6,1.8c0.5,0,1-0.2,1.4-0.6l0.1-0.1l0.5,0.6l0,0
					C130.7,25.2,130.1,25.5,129.3,25.5z M129.1,19.7c-1.3,0-2.2,1.2-2.2,2.8v0.1c0,1.6,1,2.8,2.4,2.8c0.7,0,1.3-0.2,1.8-0.8
					l-0.3-0.4c-0.4,0.4-0.9,0.6-1.4,0.6c-1,0-1.7-0.8-1.8-2l0-0.1h3.8c0-0.1,0-0.2,0-0.2C131.3,20.8,130.4,19.7,129.1,19.7z
					 M109.2,25.5c-1.7,0-2.7-1.1-2.7-3v-4.8h0.9v4.7c0,1.3,0.7,2.1,1.8,2.1c1.1,0,1.8-0.8,1.8-2.1v-4.8h0.9v4.7
					C112,24.3,110.9,25.5,109.2,25.5z M106.6,17.9v4.6c0,1.8,1,2.8,2.6,2.8c1.6,0,2.6-1.1,2.6-2.9v-4.6h-0.7v4.6
					c0,1.4-0.7,2.2-1.9,2.2c-1.2,0-2-0.8-2-2.3v-4.6H106.6z M94.2,25.5c-1.4,0-2.5-1.3-2.5-2.9v-0.1c0-1.7,1.1-2.9,2.6-2.9
					c1.4,0,2.5,1.3,2.5,2.9v0.1C96.7,24.2,95.6,25.5,94.2,25.5z M94.2,19.7c-1.4,0-2.4,1.2-2.4,2.8v0.1c0,1.6,1,2.8,2.4,2.8
					c1.4,0,2.4-1.2,2.4-2.8v-0.1C96.6,20.8,95.6,19.7,94.2,19.7z M83.4,25.5c-0.9,0-1.9-0.6-1.9-1.8v0c0-1.2,0.8-1.9,2.1-1.9
					c0.6,0,1,0.1,1.4,0.2v-0.2c0-0.8-0.5-1.3-1.4-1.3c-0.5,0-0.9,0.1-1.4,0.4l-0.1,0l-0.3-0.8l0.1,0c0.5-0.2,1-0.5,1.8-0.5
					c0.7,0,1.2,0.2,1.6,0.6c0.4,0.4,0.6,0.9,0.6,1.6v3.7H85v-0.7C84.7,25.1,84.2,25.5,83.4,25.5z M83.6,21.9c-1.2,0-2,0.7-2,1.7v0
					c0,1.1,0.9,1.7,1.7,1.7c0.9,0,1.4-0.5,1.6-0.9l0.1-0.2v1h0.6v-3.5c0-0.6-0.2-1.1-0.5-1.5c-0.4-0.4-0.9-0.5-1.5-0.5
					c-0.7,0-1.2,0.2-1.7,0.4l0.2,0.5c0.5-0.2,0.9-0.3,1.4-0.3c0.9,0,1.5,0.5,1.5,1.5v0.4l-0.1,0C84.7,22,84.2,21.9,83.6,21.9z
					 M67.7,25.5c-1.5,0-2.5-1.2-2.5-2.9v-0.1c0-1.7,1-3,2.4-3c1.4,0,2.3,1.2,2.3,2.9c0,0.1,0,0.2,0,0.3l0,0.1h-3.7
					c0.1,1.1,0.8,1.8,1.6,1.8c0.5,0,1-0.2,1.4-0.6l0.1-0.1l0.5,0.6l0,0C69.1,25.2,68.5,25.5,67.7,25.5z M67.6,19.7
					c-1.3,0-2.2,1.2-2.2,2.8v0.1c0,1.6,1,2.8,2.4,2.8c0.7,0,1.3-0.2,1.8-0.8l-0.3-0.4c-0.4,0.4-0.9,0.6-1.4,0.6c-1,0-1.7-0.8-1.8-2
					l0-0.1h3.8c0-0.1,0-0.2,0-0.2C69.7,20.8,68.9,19.7,67.6,19.7z M51.8,25.5c-1.4,0-2.5-1.3-2.5-2.9v-0.1c0-1.7,1.1-2.9,2.6-2.9
					c1.4,0,2.5,1.3,2.5,2.9v0.1C54.4,24.2,53.3,25.5,51.8,25.5z M51.9,19.7c-1.4,0-2.4,1.2-2.4,2.8v0.1c0,1.6,1,2.8,2.4,2.8
					c1.4,0,2.4-1.2,2.4-2.8v-0.1C54.3,20.8,53.2,19.7,51.9,19.7z M46.3,25.5c-1.5,0-2.5-1.2-2.5-2.9v-0.1c0-1.7,1-3,2.4-3
					c1.4,0,2.3,1.2,2.3,2.9c0,0.1,0,0.2,0,0.3l0,0.1h-3.7c0.1,1.1,0.8,1.8,1.6,1.8c0.5,0,1-0.2,1.4-0.6l0.1-0.1l0.5,0.6l0,0
					C47.7,25.2,47,25.5,46.3,25.5z M46.1,19.7c-1.3,0-2.2,1.2-2.2,2.8v0.1c0,1.6,1,2.8,2.4,2.8c0.7,0,1.3-0.2,1.8-0.8l-0.3-0.4
					c-0.4,0.4-0.9,0.6-1.4,0.6c-1,0-1.7-0.8-1.8-2l0-0.1h3.8c0-0.1,0-0.2,0-0.2C48.3,20.8,47.4,19.7,46.1,19.7z M40,25.5
					c-2.1,0-3.4-1.6-3.4-3.9v-0.1c0-2.3,1.4-3.9,3.4-3.9c0.9,0,1.6,0.2,2.3,0.8l0.1,0l-0.6,0.8l-0.1-0.1c-0.5-0.5-1.1-0.7-1.8-0.7
					c-1.4,0-2.4,1.3-2.4,3v0.1c0,1.8,1,3,2.5,3c0.6,0,1.1-0.2,1.5-0.5v-2h-1.9v-0.9h2.8v3.3l0,0C42.1,24.9,41.2,25.5,40,25.5z
					 M40,17.8c-1.9,0-3.3,1.6-3.3,3.7v0.1c0,2.2,1.3,3.7,3.3,3.7c1.1,0,1.9-0.5,2.3-0.8v-3.1h-2.5v0.6h1.9v2.2l0,0
					c-0.4,0.3-1.1,0.6-1.7,0.6c-1.6,0-2.6-1.2-2.6-3.2v-0.1c0-1.8,1.1-3.1,2.6-3.1c0.7,0,1.3,0.2,1.8,0.7l0.4-0.5
					C41.5,18,40.9,17.8,40,17.8z M138,25.4c-0.7,0-1.5-0.3-2.1-0.8l0,0l0.5-0.7l0.1,0c0.5,0.4,1.1,0.7,1.6,0.7c0.6,0,1-0.3,1-0.8
					c0-0.4-0.4-0.7-1.2-1c-0.9-0.4-1.6-0.8-1.6-1.7v0c0-0.9,0.7-1.6,1.8-1.6c0.6,0,1.3,0.2,1.8,0.6l0.1,0l-0.5,0.7l-0.1,0
					c-0.5-0.3-0.9-0.5-1.4-0.5c-0.5,0-0.9,0.3-0.9,0.7v0c0,0.4,0.5,0.6,1.2,1c0.9,0.4,1.6,0.8,1.6,1.7v0
					C139.9,24.8,139.1,25.4,138,25.4z M136.1,24.6c0.5,0.5,1.2,0.7,1.9,0.7c1,0,1.7-0.6,1.7-1.5v0c0-0.8-0.5-1.1-1.5-1.6
					c-0.8-0.3-1.3-0.6-1.3-1.1v0c0-0.5,0.4-0.9,1-0.9c0.4,0,0.9,0.2,1.4,0.5l0.3-0.5c-0.5-0.3-1.1-0.5-1.7-0.5c-1,0-1.7,0.6-1.7,1.4
					v0c0,0.8,0.6,1.1,1.5,1.5c0.7,0.3,1.3,0.6,1.3,1.1c0,0.6-0.4,0.9-1.1,0.9c-0.5,0-1.1-0.2-1.6-0.6L136.1,24.6z M88.9,25.4
					c-0.7,0-1.5-0.3-2.1-0.8l0,0l0.5-0.7l0.1,0c0.5,0.4,1.1,0.7,1.6,0.7c0.6,0,1-0.3,1-0.8c0-0.4-0.4-0.7-1.2-1
					c-0.9-0.4-1.6-0.8-1.6-1.7v0c0-0.9,0.7-1.6,1.8-1.6c0.6,0,1.3,0.2,1.8,0.6l0.1,0l-0.5,0.7l-0.1,0c-0.5-0.3-0.9-0.5-1.4-0.5
					c-0.5,0-0.9,0.3-0.9,0.7v0c0,0.4,0.5,0.6,1.2,1c0.9,0.4,1.6,0.8,1.6,1.7v0C90.8,24.8,90,25.4,88.9,25.4z M87,24.6
					c0.5,0.5,1.2,0.7,1.9,0.7c1,0,1.7-0.6,1.7-1.5v0c0-0.8-0.5-1.1-1.5-1.6c-0.8-0.3-1.3-0.6-1.3-1.1v0c0-0.5,0.4-0.9,1-0.9
					c0.4,0,0.9,0.2,1.4,0.5l0.3-0.5c-0.5-0.3-1.1-0.5-1.7-0.5c-1,0-1.7,0.6-1.7,1.4v0c0,0.8,0.6,1.1,1.6,1.5
					c0.7,0.3,1.3,0.6,1.3,1.1c0,0.6-0.4,0.9-1.1,0.9c-0.5,0-1.1-0.2-1.6-0.6L87,24.6z M145.2,25.4c-0.9,0-1.5-0.5-1.5-1.4v-3.5H143
					v-0.8h0.7V18h0.9v1.6h1.5v0.8h-1.5v3.4c0,0.5,0.2,0.7,0.7,0.7c0.2,0,0.4,0,0.6-0.1l0.1,0v0.8l0,0
					C145.7,25.4,145.5,25.4,145.2,25.4z M143.2,20.3h0.7V24c0,1.1,0.7,1.3,1.3,1.3c0.3,0,0.5-0.1,0.8-0.2v-0.5
					c-0.2,0.1-0.4,0.1-0.6,0.1c-0.6,0-0.9-0.3-0.9-0.9v-3.5h1.5v-0.5h-1.5v-1.6h-0.6v1.6h-0.7V20.3z M124.2,25.4h-0.8l0,0l-2.1-5.7
					h1l0,0l1.5,4.4l1.5-4.4h1l0,0.1L124.2,25.4z M123.5,25.3h0.6l2-5.5h-0.7l-1.6,4.7l-0.1-0.2l-1.5-4.5h-0.7L123.5,25.3z M142,25.4
					h-0.9v-5.7h0.9V25.4z M141.2,25.2h0.6v-5.4h-0.6V25.2z M133.5,25.4h-0.9v-5.7h0.9v1c0.4-0.7,1-1.1,1.8-1.1c0,0,0.1,0,0.1,0
					l0.1,0v1h-0.1c-1.1,0-1.8,0.8-1.8,2.1V25.4z M132.7,25.2h0.6v-2.6c0-1.3,0.8-2.2,1.9-2.2v-0.7c0,0,0,0,0,0
					c-0.8,0-1.4,0.5-1.8,1.3l-0.1,0.3v-1.5h-0.6V25.2z M120.3,25.4h-0.9v-5.7h0.9V25.4z M119.5,25.2h0.6v-5.4h-0.6V25.2z
					 M117.9,25.4H117v-3.5c0-1-0.4-1.5-1.2-1.5c-0.8,0-1.3,0.6-1.3,1.5v3.5h-0.9v-5.7h0.9v0.7c0.4-0.6,0.9-0.8,1.6-0.8
					c1.2,0,1.9,0.8,1.9,2.1V25.4z M117.1,25.2h0.6v-3.6c0-1.2-0.7-2-1.7-2c-0.7,0-1.2,0.3-1.6,1l-0.1,0.2v-1.1h-0.6v5.4h0.6v-3.3
					c0-1,0.6-1.7,1.5-1.7c0.9,0,1.4,0.6,1.4,1.6V25.2z M102.3,25.4h-0.9v-3.5c0-1-0.4-1.5-1.2-1.5c-0.8,0-1.3,0.6-1.3,1.5v3.5h-0.9
					v-5.7h0.9v0.7c0.4-0.6,0.9-0.8,1.6-0.8c1.2,0,1.9,0.8,1.9,2.1V25.4z M101.5,25.2h0.6v-3.6c0-1.2-0.7-2-1.7-2
					c-0.7,0-1.2,0.3-1.6,1l-0.1,0.2v-1.1h-0.6v5.4h0.6v-3.3c0-1,0.6-1.7,1.5-1.7c0.9,0,1.4,0.6,1.4,1.6V25.2z M80.2,25.4h-0.9v-5.8
					l-2.2,3.8H77l-2.2-3.8v5.8h-0.9v-7.6h0.9l0,0l2.2,3.9l2.2-3.9h0.9V25.4z M79.4,25.2h0.7v-7.3h-0.7L77,21.9L77,21.8l-2.3-4H74
					v7.3h0.6V19l2.4,4.1l2.4-4.1V25.2z M56.5,25.4h-0.9v-5.7h0.9v1c0.4-0.7,1.1-1.1,1.8-1.1l0.1,0v1h-0.1c-1.1,0-1.8,0.8-1.8,2.1
					V25.4z M55.7,25.2h0.6v-2.6c0-1.3,0.8-2.2,1.9-2.2v-0.7c0,0,0,0,0,0c-0.8,0-1.4,0.5-1.8,1.3l-0.1,0.3v-1.5h-0.6V25.2z
					 M83.5,24.8C83.5,24.8,83.5,24.8,83.5,24.8c-0.7,0-1.3-0.5-1.3-1.2v0c0-0.8,0.6-1.2,1.5-1.2c0.5,0,1,0.1,1.4,0.2l0,0v0.7
					c0,0.4-0.2,0.8-0.4,1C84.4,24.7,84,24.8,83.5,24.8z M83.7,22.5c-0.8,0-1.3,0.4-1.3,1.1v0c0,0.6,0.5,1.1,1.1,1.1h0c0,0,0,0,0,0
					c0.4,0,0.8-0.1,1.1-0.4c0.2-0.2,0.4-0.6,0.4-0.9v-0.6C84.6,22.6,84.2,22.5,83.7,22.5z M94.2,24.8c-1,0-1.8-1-1.8-2.3v-0.1
					c0-1.3,0.7-2.2,1.8-2.2c1,0,1.8,1,1.8,2.3v0.1C95.9,23.8,95.2,24.8,94.2,24.8z M94.2,20.4c-0.9,0-1.6,0.9-1.6,2.1v0.1
					c0,1.2,0.7,2.1,1.6,2.1s1.6-0.9,1.6-2.1v-0.1C95.8,21.3,95.1,20.4,94.2,20.4z M51.9,24.8c-1,0-1.8-1-1.8-2.3v-0.1
					c0-1.3,0.7-2.2,1.8-2.2c1,0,1.8,1,1.8,2.3v0.1C53.6,23.8,52.9,24.8,51.9,24.8z M51.8,20.4c-0.9,0-1.6,0.9-1.6,2.1v0.1
					c0,1.2,0.7,2.1,1.6,2.1c0.9,0,1.6-0.9,1.6-2.1v-0.1C53.5,21.3,52.8,20.4,51.8,20.4z M61.5,24.3c-1,0-1.7-0.8-1.7-2v0
					c0-1.2,0.7-2,1.7-2c0.9,0,1.8,0.8,1.8,2v0C63.2,23.5,62.3,24.3,61.5,24.3z M61.5,20.4c-0.9,0-1.5,0.7-1.5,1.9v0
					c0,1.1,0.6,1.9,1.5,1.9c0.8,0,1.6-0.7,1.6-1.9v0C63.1,21,62.3,20.4,61.5,20.4z M130.7,22.3h-3.1l0-0.1c0.1-1.2,0.7-2,1.6-2
					C130,20.2,130.6,21,130.7,22.3L130.7,22.3z M127.7,22.1h2.8c-0.1-0.8-0.5-1.8-1.4-1.8C128.3,20.3,127.8,21.1,127.7,22.1z
					 M69.1,22.3H66l0-0.1c0.1-1.2,0.7-2,1.6-2C68.4,20.2,69,21,69.1,22.3L69.1,22.3z M66.1,22.1H69c-0.1-0.8-0.5-1.8-1.4-1.8
					C66.8,20.3,66.2,21.1,66.1,22.1z M47.6,22.3h-3.1l0-0.1c0.1-1.2,0.7-2,1.6-2C47,20.2,47.6,21,47.6,22.3L47.6,22.3z M44.7,22.1
					h2.8c-0.1-0.8-0.5-1.8-1.4-1.8C45.3,20.3,44.7,21.1,44.7,22.1z M142,18.6h-1v-1h1V18.6z M141.2,18.5h0.7v-0.8h-0.7V18.5z
					 M120.3,18.6h-1v-1h1V18.6z M119.5,18.5h0.7v-0.8h-0.7V18.5z"/>
			</g>
			<g>
				<rect x="36.5" y="13" class="st0" width="115.2" height="0.9"/>
			</g>
		</g>
	</g>
</svg>
