<svg width="680" height="213" viewBox="0 0 680 213" fill="none" xmlns="http://www.w3.org/2000/svg">
<path d="M263.89 140.935L255.34 117.905H260.04L265.24 132.605C265.57 133.745 265.85 134.725 266.1 135.535L266.96 132.605L272.16 117.905H276.86L268.31 140.935H263.9H263.89Z" fill="#808080"/>
<path d="M314.23 140.935V117.905H330.12V121.785H318.57V127.085H329.2V130.965H318.57V137.055H330.22V140.935H314.23Z" fill="#808080"/>
<path d="M370.35 140.935V117.905H374.76L384.37 132.545C384.9 133.425 385.23 134.025 385.36 134.355V117.905H389.57V140.935H385.16L375.55 126.195C375.02 125.315 374.69 124.715 374.56 124.385V140.935H370.35Z" fill="#808080"/>
<path d="M429.64 121.925V117.915H448.06V121.925H441.02V140.935H436.68V121.925H429.64Z" fill="#808080"/>
<path d="M506.89 117.915V132.225C506.89 135.095 506.01 137.345 504.26 138.965C502.51 140.585 500.24 141.395 497.45 141.395C494.66 141.395 492.39 140.585 490.64 138.965C488.89 137.345 488.01 135.095 488.01 132.225V117.915H492.35V131.795C492.35 133.575 492.8 134.945 493.72 135.925C494.63 136.905 495.87 137.385 497.45 137.385C499.03 137.385 500.27 136.895 501.18 135.925C502.09 134.945 502.55 133.575 502.55 131.795V117.915H506.89Z" fill="#808080"/>
<path d="M561.34 140.935L556.01 131.595H552.33V140.935H547.99V117.905H557.83C560.35 117.905 562.35 118.495 563.82 119.665C565.29 120.835 566.02 122.425 566.02 124.415C566.02 127.685 564.27 129.945 560.76 131.195L566.32 140.935H561.35H561.34ZM552.33 121.725V127.775H557.82C560.39 127.775 561.67 126.765 561.67 124.745C561.67 122.725 560.39 121.715 557.82 121.715H552.33V121.725Z" fill="#808080"/>
<path d="M606.74 140.935V117.905H622.63V121.785H611.08V127.085H621.71V130.965H611.08V137.055H622.73V140.935H606.74Z" fill="#808080"/>
<path d="M665.96 123.665C665.96 124.545 666.4 125.265 667.28 125.815C668.16 126.375 669.57 126.855 671.52 127.245C674.06 127.775 675.96 128.605 677.19 129.745C678.43 130.885 679.05 132.405 679.05 134.315C679.05 136.225 678.27 137.935 676.7 139.315C675.13 140.695 673.05 141.385 670.47 141.385C667.73 141.385 665.55 140.715 663.92 139.375C662.3 138.035 661.26 136.245 660.79 134.015L664.61 132.075C665.29 135.735 667.23 137.565 670.43 137.565C671.72 137.565 672.76 137.285 673.54 136.705C674.32 136.135 674.71 135.385 674.71 134.465C674.71 133.455 674.25 132.665 673.34 132.095C672.43 131.525 670.99 131.045 669.01 130.645C666.79 130.205 665.04 129.415 663.75 128.265C662.46 127.115 661.81 125.605 661.81 123.745C661.81 121.885 662.56 120.305 664.05 119.155C665.54 118.005 667.49 117.425 669.91 117.425C674.3 117.425 677.21 119.395 678.66 123.345L675.24 125.315C674.32 122.595 672.51 121.235 669.81 121.235C668.71 121.235 667.8 121.435 667.06 121.845C666.32 122.255 665.96 122.845 665.96 123.635V123.665Z" fill="#808080"/>
<path d="M278.73 75.035C281.38 77.705 282.7 81.065 282.7 85.115C282.7 89.165 281.38 92.525 278.73 95.195C276.08 97.865 272.76 99.205 268.76 99.205C264.76 99.205 261.44 97.865 258.79 95.195C256.14 92.525 254.82 89.165 254.82 85.115C254.82 81.065 256.14 77.705 258.79 75.035C261.44 72.365 264.76 71.025 268.76 71.025C272.76 71.025 276.08 72.365 278.73 75.035ZM262.49 91.955C264.14 93.645 266.23 94.495 268.76 94.495C271.29 94.495 273.38 93.645 275.03 91.955C276.68 90.265 277.51 87.985 277.51 85.125C277.51 82.265 276.68 79.985 275.03 78.295C273.38 76.605 271.29 75.755 268.76 75.755C266.23 75.755 264.14 76.605 262.49 78.295C260.84 79.985 260.01 82.265 260.01 85.125C260.01 87.985 260.84 90.265 262.49 91.955Z" fill="#1B1C1E"/>
<path d="M317.84 78.345C317.84 79.375 318.36 80.225 319.39 80.885C320.42 81.545 322.09 82.105 324.38 82.565C327.37 83.185 329.6 84.165 331.06 85.505C332.52 86.845 333.25 88.645 333.25 90.885C333.25 93.125 332.33 95.145 330.48 96.765C328.63 98.395 326.19 99.205 323.14 99.205C319.91 99.205 317.35 98.415 315.44 96.845C313.53 95.275 312.3 93.165 311.76 90.535L316.25 88.255C317.05 92.565 319.33 94.725 323.1 94.725C324.62 94.725 325.84 94.385 326.76 93.715C327.68 93.045 328.13 92.165 328.13 91.085C328.13 89.895 327.59 88.965 326.52 88.295C325.45 87.625 323.75 87.055 321.43 86.595C318.82 86.075 316.76 85.145 315.24 83.785C313.72 82.425 312.96 80.655 312.96 78.465C312.96 76.275 313.84 74.415 315.59 73.065C317.34 71.715 319.64 71.035 322.48 71.035C327.64 71.035 331.07 73.355 332.78 78.005L328.75 80.325C327.67 77.125 325.54 75.525 322.36 75.525C321.07 75.525 319.99 75.765 319.13 76.245C318.27 76.725 317.83 77.425 317.83 78.355L317.84 78.345Z" fill="#1B1C1E"/>
<path d="M345.71 98.665V71.565H350.82V82.485H362.67V71.565H367.78V98.665H362.67V87.205H350.82V98.665H345.71Z" fill="#1B1C1E"/>
<path d="M378.11 98.665L389.07 71.565H393.95L404.91 98.665H399.45L396.74 91.585H386.29L383.58 98.665H378.12H378.11ZM390.5 80.505L388.02 87.005H394.99L392.51 80.505C392.17 79.625 391.84 78.645 391.5 77.565L390.49 80.505H390.5Z" fill="#1B1C1E"/>
<path d="M436.85 71.565V88.405C436.85 91.785 435.82 94.435 433.75 96.345C431.69 98.255 429.01 99.205 425.74 99.205C422.47 99.205 419.79 98.255 417.73 96.345C415.67 94.435 414.63 91.795 414.63 88.405V71.565H419.74V87.905C419.74 89.995 420.28 91.615 421.35 92.765C422.42 93.915 423.89 94.485 425.74 94.485C427.59 94.485 429.06 93.915 430.13 92.765C431.2 91.615 431.74 89.995 431.74 87.905V71.565H436.85Z" fill="#1B1C1E"/>
<path d="M471.28 98.665L470.2 94.945C468.39 97.785 465.64 99.205 461.95 99.205C458.26 99.205 454.94 97.875 452.37 95.215C449.8 92.555 448.52 89.185 448.52 85.115C448.52 81.045 449.88 77.665 452.6 75.015C455.32 72.355 458.65 71.025 462.57 71.025C465.23 71.025 467.61 71.625 469.71 72.825C471.81 74.025 473.38 75.635 474.41 77.645L470.58 80.435C468.88 77.155 466.18 75.515 462.49 75.515C460.04 75.515 457.96 76.395 456.26 78.145C454.56 79.905 453.7 82.225 453.7 85.115C453.7 87.855 454.49 90.095 456.08 91.855C457.67 93.615 459.67 94.485 462.1 94.485C464.29 94.485 466.01 93.915 467.25 92.765C468.49 91.615 469.25 90.155 469.53 88.375H460.78V84.195H474.64V98.675H471.27L471.28 98.665Z" fill="#1B1C1E"/>
<path d="M487.71 98.665V71.565H492.82V82.485H504.67V71.565H509.78V98.665H504.67V87.205H492.82V98.665H487.71Z" fill="#1B1C1E"/>
<path d="M522.79 98.665V71.565H527.98L539.28 88.795C539.9 89.825 540.29 90.535 540.44 90.925V71.565H545.4V98.665H540.21L528.91 81.325C528.29 80.295 527.9 79.585 527.75 79.195V98.665H522.79Z" fill="#1B1C1E"/>
<path d="M558.46 98.665V71.565H577.16V76.135H563.57V82.365H576.07V86.935H563.57V94.095H577.27V98.665H558.46Z" fill="#1B1C1E"/>
<path d="M595.07 78.345C595.07 79.375 595.59 80.225 596.62 80.885C597.65 81.545 599.32 82.105 601.61 82.565C604.6 83.185 606.83 84.165 608.29 85.505C609.75 86.845 610.48 88.645 610.48 90.885C610.48 93.125 609.56 95.145 607.71 96.765C605.86 98.395 603.42 99.205 600.37 99.205C597.14 99.205 594.58 98.415 592.67 96.845C590.76 95.275 589.53 93.165 588.99 90.535L593.48 88.255C594.28 92.565 596.56 94.725 600.33 94.725C601.85 94.725 603.07 94.385 603.99 93.715C604.91 93.045 605.36 92.165 605.36 91.085C605.36 89.895 604.82 88.965 603.75 88.295C602.68 87.625 600.98 87.055 598.66 86.595C596.05 86.075 593.99 85.145 592.47 83.785C590.95 82.425 590.19 80.655 590.19 78.465C590.19 76.275 591.07 74.415 592.82 73.065C594.57 71.715 596.87 71.035 599.71 71.035C604.87 71.035 608.3 73.355 610.01 78.005L605.98 80.325C604.9 77.125 602.77 75.525 599.59 75.525C598.3 75.525 597.22 75.765 596.36 76.245C595.5 76.725 595.06 77.425 595.06 78.355L595.07 78.345Z" fill="#1B1C1E"/>
<path d="M629.21 78.345C629.21 79.375 629.73 80.225 630.76 80.885C631.79 81.545 633.46 82.105 635.75 82.565C638.74 83.185 640.97 84.165 642.43 85.505C643.89 86.845 644.62 88.645 644.62 90.885C644.62 93.125 643.7 95.145 641.85 96.765C640 98.395 637.56 99.205 634.51 99.205C631.28 99.205 628.72 98.415 626.81 96.845C624.9 95.275 623.67 93.165 623.13 90.535L627.62 88.255C628.42 92.565 630.7 94.725 634.47 94.725C635.99 94.725 637.21 94.385 638.13 93.715C639.05 93.045 639.5 92.165 639.5 91.085C639.5 89.895 638.96 88.965 637.89 88.295C636.82 87.625 635.12 87.055 632.8 86.595C630.19 86.075 628.13 85.145 626.61 83.785C625.09 82.425 624.33 80.655 624.33 78.465C624.33 76.275 625.21 74.415 626.96 73.065C628.71 71.715 631.01 71.035 633.85 71.035C639.01 71.035 642.44 73.355 644.15 78.005L640.12 80.325C639.04 77.125 636.91 75.525 633.73 75.525C632.44 75.525 631.36 75.765 630.5 76.245C629.64 76.725 629.2 77.425 629.2 78.355L629.21 78.345Z" fill="#1B1C1E"/>
<path d="M670.6 88.055V98.665H665.49V88.055L656.55 71.565H662.16L667.19 81.205C667.53 81.905 667.81 82.565 668.04 83.175L668.89 81.205L673.92 71.565H679.53L670.59 88.055H670.6Z" fill="#1B1C1E"/>
<path d="M300.39 72.545C299.84 71.965 299.06 71.605 298.19 71.605C296.51 71.605 295.15 72.965 295.15 74.645C295.15 75.465 295.47 76.205 296 76.755C296.26 77.025 296.58 77.255 296.93 77.415L294.63 82.025L295.64 82.725L300.4 76.765C300.92 76.215 301.25 75.475 301.25 74.655C301.25 73.835 300.93 73.095 300.4 72.555L300.39 72.545Z" fill="#1B1C1E"/>
<path d="M106.18 212.395C164.822 212.395 212.36 164.857 212.36 106.215C212.36 47.5734 164.822 0.0350037 106.18 0.0350037C47.5384 0.0350037 0 47.5734 0 106.215C0 164.857 47.5384 212.395 106.18 212.395Z" fill="url(#paint0_radial_412_982)"/>
<defs>
<radialGradient id="paint0_radial_412_982" cx="0" cy="0" r="1" gradientUnits="userSpaceOnUse" gradientTransform="translate(106.18 106.215) scale(106.18)">
<stop offset="0.02" stop-color="white"/>
<stop offset="0.14" stop-color="#FFFFFD"/>
<stop offset="0.18" stop-color="#FFFFF6"/>
<stop offset="0.21" stop-color="#FFFFEA"/>
<stop offset="0.24" stop-color="#FFFFD9"/>
<stop offset="0.26" stop-color="#FFFFC3"/>
<stop offset="0.28" stop-color="#FFFFA8"/>
<stop offset="0.29" stop-color="#FFFF87"/>
<stop offset="0.31" stop-color="#FFFF63"/>
<stop offset="0.32" stop-color="#F9FB41"/>
<stop offset="0.35" stop-color="#D2E56B"/>
<stop offset="0.38" stop-color="#B0D28E"/>
<stop offset="0.41" stop-color="#95C3AB"/>
<stop offset="0.44" stop-color="#80B7C1"/>
<stop offset="0.47" stop-color="#71AED1"/>
<stop offset="0.51" stop-color="#68A9DB"/>
<stop offset="0.56" stop-color="#66A8DE"/>
<stop offset="0.57" stop-color="#8CBDE6"/>
<stop offset="0.58" stop-color="#AFD1ED"/>
<stop offset="0.6" stop-color="#CCE2F4"/>
<stop offset="0.61" stop-color="#E2EEF8"/>
<stop offset="0.63" stop-color="#F2F7FC"/>
<stop offset="0.65" stop-color="#FCFDFE"/>
<stop offset="0.68" stop-color="white"/>
<stop offset="0.69" stop-color="#FCF6EE"/>
<stop offset="0.71" stop-color="#F5DFC3"/>
<stop offset="0.74" stop-color="#EBBB7D"/>
<stop offset="0.77" stop-color="#DF912C"/>
<stop offset="0.78" stop-color="#DB8A2B"/>
<stop offset="0.85" stop-color="#C85C26"/>
<stop offset="0.91" stop-color="#B93C23"/>
<stop offset="0.96" stop-color="#B12821"/>
<stop offset="1" stop-color="#AE2121"/>
</radialGradient>
</defs>
</svg>
